<svg width="34" height="35" viewBox="0 0 34 35" fill="none" xmlns="http://www.w3.org/2000/svg">
<path d="M16.7703 4.2981C9.80573 4.2981 4.23409 10.0289 4.23409 17.1925C4.23409 24.356 9.80573 30.0868 16.7703 30.0868C23.7348 30.0868 29.3065 24.356 29.3065 17.1925C29.3065 10.0289 23.7348 4.2981 16.7703 4.2981ZM16.7703 14.327C18.3025 14.327 19.5561 15.6165 19.5561 17.1925C19.5561 18.7684 18.3025 20.0579 16.7703 20.0579C15.2381 20.0579 13.9845 18.7684 13.9845 17.1925C13.9845 15.6165 15.2381 14.327 16.7703 14.327ZM20.6704 11.4616C20.6704 10.4587 21.5062 9.74238 22.3419 9.74238C23.1777 9.74238 24.0134 10.602 24.0134 11.4616C24.0134 12.3213 23.3169 13.1809 22.3419 13.1809C21.3669 13.1809 20.6704 12.4645 20.6704 11.4616ZM16.7703 27.2214C11.3379 27.2214 7.01991 22.78 7.01991 17.1925H11.1986C11.1986 20.3444 13.7059 22.9233 16.7703 22.9233C19.8347 22.9233 22.3419 20.3444 22.3419 17.1925H26.5206C26.5206 22.78 22.2026 27.2214 16.7703 27.2214Z" fill="#D9D5D5"/>
</svg>
