<svg width="34" height="35" viewBox="0 0 34 35" fill="none" xmlns="http://www.w3.org/2000/svg">
<path d="M20.0354 19.5067L23.0389 21.0486C22.8965 21.7803 22.5117 22.4386 21.9502 22.9111C21.3887 23.3836 20.6852 23.641 19.9597 23.6396C17.4669 23.6367 15.0771 22.6169 13.3144 20.8039C11.5518 18.9909 10.5603 16.5328 10.5576 13.9688C10.5574 13.2235 10.8082 12.5012 11.2675 11.9247C11.7268 11.3482 12.366 10.9533 13.0765 10.807L14.5757 13.8963L13.2998 15.8492C13.2045 15.9963 13.1459 16.1654 13.1293 16.3413C13.1127 16.5173 13.1385 16.6947 13.2045 16.858C13.952 18.6852 15.3652 20.1388 17.1417 20.9076C17.3008 20.9785 17.4747 21.0075 17.6475 20.9921C17.8203 20.9766 17.9866 20.9171 18.1315 20.8189L20.0354 19.5067ZM30.4065 17.1924C30.407 19.6041 29.8005 21.9748 28.6459 24.0739C27.4914 26.1729 25.8281 27.9288 23.8181 29.1705C21.8081 30.4122 19.5197 31.0975 17.1758 31.1597C14.8319 31.2219 12.5122 30.6588 10.4426 29.5253L5.99621 31.0498C5.62807 31.1761 5.23302 31.1944 4.85532 31.1027C4.47763 31.0111 4.13222 30.813 3.85782 30.5307C3.58341 30.2485 3.39085 29.8932 3.30171 29.5047C3.21258 29.1163 3.2304 28.7099 3.35317 28.3313L4.83531 23.7578C3.86656 21.8844 3.32548 19.8086 3.25314 17.688C3.18079 15.5674 3.57909 13.4577 4.41779 11.5191C5.25649 9.58043 6.51355 7.8638 8.09356 6.49948C9.67357 5.13516 11.535 4.159 13.5366 3.6451C15.5381 3.13121 17.6272 3.09308 19.6452 3.53361C21.6632 3.97415 23.5571 4.88176 25.1832 6.18757C26.8093 7.49338 28.1248 9.16305 29.0298 11.0699C29.9348 12.9767 30.4057 15.0705 30.4065 17.1924ZM25.1831 20.416C25.1832 20.2164 25.1293 20.0207 25.0274 19.8508C24.9254 19.6809 24.7795 19.5436 24.6059 19.4543L20.4272 17.3052C20.2627 17.2209 20.0795 17.1827 19.8961 17.1945C19.7127 17.2063 19.5355 17.2677 19.3825 17.3724L17.4642 18.6887C16.5836 18.1908 15.8589 17.4454 15.3748 16.5396L16.6546 14.5665C16.7564 14.4092 16.816 14.2269 16.8275 14.0383C16.839 13.8496 16.8018 13.6612 16.7199 13.492L14.6305 9.19388C14.5439 9.01399 14.41 8.86265 14.2441 8.75701C14.0782 8.65136 13.8868 8.59565 13.6916 8.59617C12.3063 8.59617 10.9777 9.16221 9.99809 10.1698C9.01851 11.1773 8.46819 12.5439 8.46819 13.9688C8.47165 17.1025 9.68346 20.1069 11.8378 22.3228C13.9921 24.5387 16.913 25.7851 19.9597 25.7886C20.6456 25.7886 21.3249 25.6497 21.9586 25.3797C22.5923 25.1097 23.1682 24.7139 23.6532 24.215C24.1382 23.7161 24.523 23.1239 24.7855 22.472C25.048 21.8202 25.1831 21.1215 25.1831 20.416Z" fill="#D9D5D5"/>
</svg>
