<svg width="470" height="419" viewBox="0 0 470 419" fill="none" xmlns="http://www.w3.org/2000/svg">
<g clip-path="url(#clip0_43_747)">
<path d="M434.47 320.547L455.554 323.688C462.691 315.451 467.611 305.679 469.886 295.218C454.469 307.247 431.024 300.855 412.329 307.422C406.515 309.513 401.268 312.824 396.979 317.111C392.69 321.397 389.468 326.548 387.551 332.182L377.247 342.749C386.574 346.269 396.592 347.819 406.608 347.294C416.625 346.768 426.403 344.179 435.268 339.705C440.216 337.147 444.806 334.007 448.93 330.356C441.553 325.928 434.47 320.547 434.47 320.547Z" fill="#F2F2F2"/>
<path d="M426.985 288.405L447.326 282.253C449.86 271.847 449.691 261.009 446.833 250.679C438.662 268 414.687 272.245 401.027 286.07C396.801 290.413 393.655 295.607 391.821 301.266C389.988 306.926 389.514 312.906 390.435 318.764L386.156 332.602C396.152 331.787 405.843 328.917 414.562 324.188C423.281 319.46 430.822 312.986 436.663 305.212C439.895 300.82 442.534 296.058 444.517 291.038C435.842 290.211 426.985 288.405 426.985 288.405Z" fill="#F2F2F2"/>
<path d="M470 349.151C470 349.254 469.979 349.357 469.938 349.453C469.896 349.549 469.835 349.636 469.758 349.709C469.681 349.783 469.59 349.841 469.489 349.88C469.389 349.92 469.281 349.94 469.172 349.94H0.827803C0.608265 349.94 0.397715 349.856 0.242478 349.708C0.0872407 349.561 3.05176e-05 349.36 3.05176e-05 349.151C3.05176e-05 348.941 0.0872407 348.741 0.242478 348.593C0.397715 348.445 0.608265 348.362 0.827803 348.362H469.172C469.281 348.361 469.389 348.381 469.489 348.421C469.59 348.461 469.681 348.519 469.758 348.592C469.835 348.665 469.896 348.752 469.938 348.848C469.979 348.944 470 349.047 470 349.151Z" fill="#F0C969"/>
<path d="M194.072 315.513C276.67 315.513 343.628 251.691 343.628 172.962C343.628 94.2329 276.67 30.4104 194.072 30.4104C111.475 30.4104 44.5172 94.2329 44.5172 172.962C44.5172 251.691 111.475 315.513 194.072 315.513Z" fill="#424242"/>
<path d="M322.759 172.962C322.775 192.102 318.084 210.978 309.064 228.078C300.044 245.178 286.945 260.025 270.819 271.429C269.74 272.198 268.641 272.947 267.535 273.676C245.97 287.965 220.336 295.623 194.072 295.623C167.809 295.623 142.175 287.965 120.609 273.676C119.503 272.947 118.404 272.198 117.326 271.429C101.211 260.015 88.1204 245.166 79.1015 228.068C70.0826 210.971 65.3854 192.099 65.3854 172.962C65.3854 153.825 70.0826 134.953 79.1015 117.856C88.1204 100.758 101.211 85.9092 117.326 74.4955C118.404 73.7264 119.503 72.9771 120.609 72.2478C142.175 57.9596 167.809 50.3015 194.072 50.3015C220.336 50.3015 245.97 57.9596 267.535 72.2478C268.641 72.9771 269.74 73.7264 270.819 74.4955C286.945 85.8992 300.044 100.746 309.064 117.846C318.084 134.946 322.775 153.823 322.759 172.962Z" fill="white"/>
<path d="M194.072 285.014C258.998 285.014 311.63 234.847 311.63 172.962C311.63 111.077 258.998 60.9099 194.072 60.9099C129.147 60.9099 76.515 111.077 76.515 172.962C76.515 234.847 129.147 285.014 194.072 285.014Z" fill="#F0C969"/>
<path opacity="0.2" d="M194.379 61.2231C192.597 61.2231 190.826 61.2676 189.063 61.3424C218.775 63.831 246.384 76.9919 266.295 98.1587C286.207 119.325 296.933 146.915 296.3 175.339C295.667 203.762 283.723 230.893 262.887 251.235C242.051 271.578 213.881 283.61 184.085 284.895C187.478 285.176 190.91 285.327 194.379 285.327C225.557 285.327 255.458 273.522 277.505 252.508C299.551 231.494 311.937 202.993 311.937 173.275C311.937 143.557 299.551 115.056 277.505 94.0425C255.458 73.0286 225.557 61.2231 194.379 61.2231Z" fill="black"/>
<path d="M194.42 52.9536C193.406 52.9553 192.434 53.3401 191.717 54.0236C191 54.7071 190.596 55.6336 190.594 56.6003V72.513C190.594 73.4802 190.997 74.4077 191.715 75.0916C192.432 75.7755 193.406 76.1597 194.42 76.1597C195.435 76.1597 196.408 75.7755 197.126 75.0916C197.843 74.4077 198.246 73.4802 198.246 72.513V56.6003C198.244 55.6336 197.841 54.7071 197.124 54.0236C196.406 53.3401 195.434 52.9553 194.42 52.9536Z" fill="white"/>
<path d="M270.819 74.4954C269.74 73.7263 268.641 72.977 267.535 72.2477C266.872 72.2065 266.208 72.331 265.611 72.6089C265.013 72.8868 264.501 73.3085 264.127 73.8324L254.729 86.9802C254.158 87.7795 253.944 88.7622 254.133 89.7121C254.322 90.6621 254.899 91.5015 255.738 92.0458C256.576 92.59 257.607 92.7945 258.604 92.6142C259.601 92.4339 260.481 91.8836 261.052 91.0844L270.45 77.9365C270.808 77.4377 271.029 76.8616 271.093 76.2606C271.157 75.6596 271.063 75.0528 270.819 74.4954Z" fill="white"/>
<path d="M313.515 134.447C313.326 134.003 313.047 133.6 312.695 133.259C312.342 132.919 311.922 132.648 311.46 132.462C310.997 132.276 310.501 132.179 309.999 132.176C309.497 132.173 308.999 132.264 308.534 132.444L293.064 138.431C292.125 138.796 291.376 139.501 290.982 140.392C290.588 141.282 290.581 142.285 290.963 143.181C291.345 144.076 292.084 144.791 293.018 145.167C293.952 145.543 295.004 145.551 295.944 145.188L311.414 139.201C312.353 138.834 313.101 138.128 313.495 137.237C313.888 136.346 313.896 135.343 313.515 134.447Z" fill="white"/>
<path d="M133.416 86.9803L124.018 73.8324C123.644 73.3085 123.132 72.8868 122.534 72.6089C121.937 72.331 121.273 72.2065 120.61 72.2477C119.504 72.977 118.404 73.7263 117.326 74.4954C117.082 75.0528 116.988 75.6596 117.052 76.2606C117.116 76.8616 117.337 77.4377 117.695 77.9365L127.093 91.0844C127.664 91.8836 128.544 92.4339 129.541 92.6142C130.538 92.7945 131.568 92.59 132.407 92.0458C133.245 91.5016 133.823 90.6621 134.012 89.7121C134.201 88.7622 133.987 87.7795 133.416 86.9803Z" fill="white"/>
<path d="M95.0808 138.431L79.6105 132.444C78.6706 132.08 77.6176 132.087 76.683 132.464C75.7485 132.84 75.009 133.554 74.6272 134.45C74.2453 135.346 74.2524 136.35 74.6469 137.24C75.0414 138.131 75.7909 138.836 76.7307 139.2L92.201 145.188C93.1407 145.551 94.1932 145.543 95.1272 145.167C96.0611 144.79 96.8001 144.076 97.1817 143.181C97.5634 142.285 97.5565 141.282 97.1626 140.392C96.7686 139.501 96.0198 138.796 95.0808 138.431Z" fill="white"/>
<path d="M194.42 269.764C193.406 269.766 192.434 270.151 191.717 270.834C191 271.518 190.596 272.444 190.594 273.411V289.324C190.594 290.291 190.997 291.219 191.715 291.902C192.432 292.586 193.406 292.97 194.42 292.97C195.435 292.97 196.408 292.586 197.126 291.902C197.843 291.219 198.246 290.291 198.246 289.324V273.411C198.244 272.444 197.841 271.518 197.124 270.834C196.406 270.151 195.434 269.766 194.42 269.764Z" fill="white"/>
<path d="M270.45 267.988L261.052 254.84C260.77 254.444 260.408 254.105 259.988 253.843C259.568 253.58 259.097 253.399 258.604 253.31C258.11 253.221 257.603 253.225 257.112 253.322C256.62 253.42 256.153 253.609 255.738 253.878C255.323 254.148 254.967 254.492 254.692 254.893C254.416 255.293 254.227 255.742 254.133 256.212C254.039 256.682 254.044 257.166 254.146 257.634C254.248 258.103 254.447 258.548 254.729 258.944L264.127 272.092C264.501 272.616 265.013 273.037 265.61 273.315C266.208 273.593 266.872 273.718 267.535 273.676C268.641 272.947 269.74 272.198 270.819 271.429C271.063 270.871 271.157 270.264 271.093 269.663C271.029 269.062 270.808 268.486 270.45 267.988Z" fill="white"/>
<path d="M311.414 206.724L295.944 200.736C295.004 200.373 293.951 200.38 293.016 200.756C292.082 201.132 291.342 201.846 290.961 202.742C290.579 203.638 290.586 204.642 290.98 205.533C291.375 206.424 292.124 207.129 293.064 207.493L308.534 213.48C309.474 213.843 310.527 213.835 311.461 213.459C312.395 213.083 313.133 212.368 313.515 211.473C313.897 210.577 313.89 209.574 313.496 208.684C313.102 207.793 312.353 207.088 311.414 206.724Z" fill="white"/>
<path d="M132.407 253.878C131.568 253.334 130.538 253.13 129.541 253.31C128.544 253.49 127.664 254.04 127.093 254.84L117.695 267.987C117.337 268.486 117.116 269.062 117.052 269.663C116.988 270.264 117.082 270.871 117.326 271.429C118.404 272.198 119.504 272.947 120.61 273.676C121.273 273.717 121.937 273.593 122.534 273.315C123.132 273.037 123.644 272.615 124.018 272.092L133.416 258.944C133.698 258.548 133.897 258.103 133.999 257.634C134.101 257.166 134.106 256.682 134.012 256.212C133.918 255.741 133.728 255.293 133.453 254.893C133.178 254.492 132.822 254.148 132.407 253.878Z" fill="white"/>
<path d="M97.1815 202.739C96.9926 202.295 96.7138 201.892 96.3612 201.551C96.0086 201.211 95.5891 200.94 95.1265 200.754C94.664 200.568 94.1676 200.471 93.6656 200.468C93.1636 200.465 92.6659 200.556 92.201 200.736L76.7307 206.723C75.7917 207.088 75.0429 207.793 74.649 208.684C74.255 209.574 74.2481 210.577 74.6298 211.473C75.0114 212.368 75.7504 213.083 76.6844 213.459C77.6183 213.835 78.6708 213.843 79.6105 213.48L95.0808 207.493C96.0194 207.126 96.7675 206.42 97.1612 205.529C97.5549 204.638 97.5622 203.635 97.1815 202.739Z" fill="white"/>
<path d="M199.384 171.153C199.738 173.146 199.247 175.191 198.02 176.84C196.793 178.489 194.93 179.607 192.839 179.948L124.95 190.955C123.914 191.123 122.854 191.095 121.83 190.872C120.805 190.65 119.837 190.237 118.98 189.658C118.123 189.078 117.395 188.344 116.836 187.496C116.277 186.648 115.898 185.704 115.722 184.717C115.546 183.73 115.575 182.719 115.809 181.743C116.043 180.767 116.476 179.844 117.083 179.027C117.691 178.21 118.462 177.516 119.351 176.983C120.24 176.45 121.231 176.089 122.267 175.921L190.157 164.914C192.248 164.578 194.394 165.045 196.124 166.215C197.854 167.384 199.026 169.16 199.384 171.153Z" fill="#424242"/>
<path d="M270.836 242.847C269.861 243.782 268.537 244.31 267.154 244.315C265.77 244.32 264.442 243.802 263.459 242.874L190.376 173.761C189.395 172.832 188.842 171.569 188.837 170.251C188.832 168.933 189.377 167.667 190.35 166.732C191.324 165.796 192.648 165.267 194.031 165.261C195.414 165.255 196.742 165.773 197.725 166.701L270.807 235.814C271.788 236.744 272.342 238.006 272.348 239.325C272.353 240.643 271.81 241.91 270.836 242.847Z" fill="#424242"/>
<path d="M194.072 181.581C199.067 181.581 203.115 177.722 203.115 172.962C203.115 168.202 199.067 164.343 194.072 164.343C189.078 164.343 185.03 168.202 185.03 172.962C185.03 177.722 189.078 181.581 194.072 181.581Z" fill="#CCCCCC"/>
<path d="M131.785 23.5009C117.905 44.3018 96.7257 58.1063 70.6068 67.175C70.0907 67.5434 69.5035 67.8114 68.8788 67.9635C68.254 68.1157 67.604 68.149 66.9657 68.0617C66.3274 67.9744 65.7134 67.7681 65.1588 67.4546C64.6041 67.1411 64.1197 66.7265 63.7332 66.2346C49.5457 48.1786 52.7492 22.373 71.4737 8.57619C76.0007 5.24638 81.1764 2.80686 86.7006 1.39927C92.2247 -0.00833241 97.9872 -0.355977 103.653 0.376524C109.32 1.10903 114.777 2.90708 119.708 5.66629C124.639 8.4255 128.947 12.0909 132.379 16.4497L132.772 16.9491C133.158 17.4411 133.44 18.0008 133.599 18.5963C133.759 19.1918 133.794 19.8114 133.702 20.4198C133.611 21.0282 133.394 21.6134 133.065 22.1421C132.736 22.6707 132.301 23.1325 131.785 23.5009Z" fill="#424242"/>
<path d="M255.765 16.4497C259.198 12.0909 263.505 8.4255 268.437 5.66628C273.368 2.90707 278.825 1.10903 284.491 0.376527C290.158 -0.355974 295.92 -0.00833968 301.444 1.39926C306.968 2.80686 312.144 5.24638 316.671 8.57619C335.396 22.373 338.599 48.1786 324.412 66.2346C324.025 66.7265 323.541 67.1411 322.986 67.4546C322.432 67.7681 321.818 67.9744 321.179 68.0617C320.541 68.149 319.891 68.1157 319.266 67.9635C318.641 67.8114 318.054 67.5434 317.538 67.175C293.291 58.3266 273.407 43.0145 256.36 23.5009C255.317 22.7568 254.628 21.6485 254.443 20.4198C254.258 19.1911 254.592 17.9427 255.373 16.9491L255.765 16.4497Z" fill="#424242"/>
<path d="M249.681 296.464C248.797 296.937 248.146 297.725 247.871 298.656C247.595 299.586 247.717 300.582 248.211 301.427L270.291 339.035C270.787 339.879 271.613 340.501 272.59 340.763C273.566 341.026 274.612 340.908 275.497 340.436C276.383 339.964 277.035 339.176 277.311 338.245C277.587 337.315 277.463 336.318 276.968 335.474L254.888 297.865C254.392 297.022 253.565 296.402 252.589 296.139C251.613 295.876 250.567 295.993 249.681 296.464Z" fill="#424242"/>
<path d="M133.257 297.865L111.177 335.474C110.681 336.318 110.558 337.315 110.834 338.245C111.11 339.176 111.762 339.964 112.647 340.436C113.533 340.908 114.579 341.026 115.555 340.763C116.531 340.501 117.358 339.879 117.854 339.035L139.934 301.427C140.179 301.009 140.336 300.549 140.395 300.073C140.454 299.597 140.414 299.115 140.278 298.654C140.141 298.193 139.911 297.763 139.599 297.387C139.288 297.011 138.902 296.697 138.464 296.463C138.025 296.229 137.543 296.08 137.044 296.023C136.545 295.967 136.039 296.005 135.556 296.136C135.072 296.266 134.62 296.486 134.226 296.782C133.831 297.079 133.502 297.447 133.257 297.865Z" fill="#424242"/>
<path d="M274.763 348.665C281.294 348.665 286.588 343.619 286.588 337.394C286.588 331.169 281.294 326.122 274.763 326.122C268.232 326.122 262.937 331.169 262.937 337.394C262.937 343.619 268.232 348.665 274.763 348.665Z" fill="#F0C969"/>
<path d="M283.11 60.2469C289.641 60.2469 294.935 55.2005 294.935 48.9754C294.935 42.7503 289.641 37.7039 283.11 37.7039C276.579 37.7039 271.285 42.7503 271.285 48.9754C271.285 55.2005 276.579 60.2469 283.11 60.2469Z" fill="#F0C969"/>
<path d="M193.377 33.7257C199.908 33.7257 205.202 28.6792 205.202 22.4541C205.202 16.229 199.908 11.1826 193.377 11.1826C186.846 11.1826 181.552 16.229 181.552 22.4541C181.552 28.6792 186.846 33.7257 193.377 33.7257Z" fill="#F0C969"/>
<path d="M107.817 58.9207C114.348 58.9207 119.643 53.8743 119.643 47.6492C119.643 41.4241 114.348 36.3777 107.817 36.3777C101.286 36.3777 95.992 41.4241 95.992 47.6492C95.992 53.8743 101.286 58.9207 107.817 58.9207Z" fill="#F0C969"/>
<path d="M115.469 348.665C122 348.665 127.294 343.619 127.294 337.394C127.294 331.169 122 326.122 115.469 326.122C108.938 326.122 103.644 331.169 103.644 337.394C103.644 343.619 108.938 348.665 115.469 348.665Z" fill="#F0C969"/>
<path d="M265.487 236.507C265.953 237.203 266.574 237.793 267.305 238.235C268.036 238.678 268.86 238.962 269.719 239.068C270.578 239.174 271.45 239.099 272.276 238.849C273.101 238.598 273.859 238.179 274.495 237.619L293.051 247.096L292.056 236.712L274.588 229.305C273.53 228.347 272.142 227.793 270.684 227.747C269.227 227.7 267.803 228.165 266.681 229.053C265.559 229.941 264.818 231.19 264.598 232.564C264.378 233.938 264.694 235.341 265.487 236.507Z" fill="#FFB7B7"/>
<path d="M279.007 240.131L286.278 230.564L321.309 246.348L364.901 238.552C367.055 238.167 369.273 238.239 371.395 238.762C373.518 239.285 375.493 240.248 377.181 241.58C378.87 242.913 380.23 244.584 381.164 246.474C382.099 248.365 382.586 250.428 382.59 252.517C382.593 256.292 381.025 259.913 378.23 262.587C375.436 265.261 371.642 266.768 367.682 266.78L317.727 266.868L279.007 240.131Z" fill="#424242"/>
<path d="M267.808 405.376L260.45 402.022L270.557 372.711L281.414 377.661L267.808 405.376Z" fill="#FFB7B7"/>
<path d="M317.13 400.651C316.595 400.97 316.06 401.284 315.52 401.599C314.444 402.227 313.358 402.845 312.272 403.453C311.726 403.757 311.175 404.061 310.629 404.36V404.375L310.597 404.38L310.586 404.385L309.754 404.581L308.56 401.573L308.008 400.187L307.23 398.225L305.803 394.635L298.292 375.731L309.97 372.985L310.408 374.69H310.413L310.629 375.535L314.709 391.307L315.541 394.532L315.568 394.63L316.071 396.556L316.503 398.225L316.984 400.09L317.13 400.651Z" fill="#FFB7B7"/>
<path d="M386.794 334.265C386.054 335.398 385.297 336.526 384.535 337.644C383.119 339.725 381.666 341.775 380.174 343.794C380.174 343.799 380.169 343.799 380.163 343.804C379.293 344.573 378.332 345.242 377.299 345.798C377.256 345.829 377.207 345.849 377.164 345.875C376.404 346.276 375.594 346.585 374.754 346.797C374.451 346.869 374.143 346.941 373.841 347.013C372.749 347.261 371.668 347.472 370.593 347.657C368.68 347.982 366.788 348.213 364.908 348.358C364.757 348.373 364.605 348.383 364.454 348.394C356.721 348.935 349.193 348.064 341.336 346.637C337.456 345.937 333.495 345.097 329.393 344.227C328.053 343.938 326.707 343.655 325.345 343.372C325.243 343.351 325.135 343.325 325.027 343.305C323.081 342.898 321.103 342.496 319.077 342.099C316.526 341.6 313.894 341.116 311.16 340.657L311.354 344.33C311.516 347.155 312.132 349.94 313.181 352.587C314.348 355.842 315.272 358.417 313.322 363.78L312.381 366.376C312.869 367.665 313.036 369.044 312.87 370.405C312.704 371.766 312.209 373.072 311.425 374.22L311.236 374.493L319.077 393.402L319.585 394.628H315.57L310.63 394.633H302.26L290.182 371.537L289.603 370.435V370.378L290.852 325.993C290.868 325.601 290.9 325.204 290.954 324.813C291.175 323.033 291.764 321.313 292.689 319.753C293.614 318.193 294.856 316.824 296.342 315.727C297.766 314.666 299.397 313.886 301.14 313.431C302.884 312.977 304.704 312.857 306.496 313.079L310.63 313.589L319.077 314.63L325.026 315.366L325.145 315.382L342.692 317.545L343.951 312.652L344.184 312.569L351.571 309.989L377.121 301.062L377.186 301.042L378.866 300.454L379.066 300.763C379.126 300.856 379.185 300.949 379.239 301.042C380.9 303.88 382.253 306.873 383.276 309.973C384.996 315.038 386.413 320.192 387.518 325.41C387.567 325.637 387.61 325.843 387.648 326.029L387.664 326.085C387.68 326.173 387.691 326.229 387.696 326.245C388.285 328.583 387.875 331.437 386.794 334.265Z" fill="#1D1D1B"/>
<path d="M387.872 317.908C387.791 317.578 387.689 317.243 387.581 316.919C386.723 314.461 385.723 312.05 384.587 309.697C383.311 307.019 381.782 304.15 379.961 301.044C379.08 299.539 378.133 297.975 377.119 296.351C376.611 295.537 376.083 294.708 375.535 293.863C375.514 293.824 375.49 293.787 375.465 293.75L375.308 293.503L350.028 296.727L340.615 297.927L340.053 302.398L339.918 303.506C339.912 303.506 339.912 303.506 339.918 303.511L339.539 306.529V306.534L339.037 310.521L338.993 310.516L325.024 308.791L310.628 307.014L302.895 306.061C301.103 305.838 299.282 305.957 297.539 306.412C295.796 306.867 294.165 307.647 292.741 308.708C291.255 309.806 290.014 311.175 289.089 312.735C288.164 314.295 287.574 316.015 287.353 317.794C287.304 318.155 287.272 318.526 287.256 318.892L279.96 335.369C275.595 345.224 272.815 355.65 271.714 366.295L266.364 382.598L267.126 382.665L278.463 383.669L281.457 383.937L288.05 374.763C288.801 373.718 289.515 372.641 290.179 371.539C291.274 369.739 292.247 367.874 293.092 365.955L307.353 333.608C308.456 333.788 309.547 333.96 310.628 334.123C315.627 334.895 320.425 335.526 325.024 336.013C339.977 337.605 352.925 337.728 364.452 336.379C367.689 336.003 370.817 335.508 373.838 334.895C374.946 334.674 376.04 334.435 377.119 334.179C377.372 334.123 377.621 334.066 377.87 334.004C380.103 333.455 382.156 332.381 383.841 330.88C385.527 329.379 386.79 327.499 387.516 325.413C388.382 322.994 388.506 320.391 387.872 317.908Z" fill="#1D1D1B"/>
<path d="M270.158 400.59L262.198 396.953L260.949 396.382L258.955 401.048L245.035 403.969C244.346 404.113 243.724 404.463 243.259 404.967C242.795 405.472 242.511 406.105 242.451 406.775C242.391 407.444 242.556 408.114 242.924 408.687C243.291 409.26 243.842 409.706 244.494 409.959L258.096 415.249L262.414 411.546L261.354 416.517L266.477 418.51L272.092 401.476L270.158 400.59Z" fill="#C9A03A"/>
<path d="M319.076 393.402L319.585 394.628H319.076V393.402Z" fill="#2F2E41"/>
<path d="M316.304 394.89L307.964 397.645L306.655 398.076L308.683 402.729L300.947 414.141C300.564 414.704 300.38 415.37 300.423 416.041C300.465 416.711 300.731 417.351 301.182 417.867C301.633 418.383 302.246 418.748 302.93 418.909C303.614 419.069 304.334 419.017 304.985 418.76L318.555 413.396L318.889 407.869L321.806 412.111L326.918 410.092L318.333 394.222L316.304 394.89Z" fill="#C9A03A"/>
<path d="M385.792 325.37C385.297 325.369 384.809 325.254 384.371 325.034L340.357 303.113L339.849 301.128L338.89 294.848L338.903 294.789L343.089 276.395C343.013 276.237 342.852 275.978 342.671 275.685C340.802 272.667 335.115 263.482 345.969 250.834L365.026 229.658L381.381 228.987L381.567 229.211C385.941 234.443 388.89 240.624 390.153 247.204C391.417 253.785 390.955 260.561 388.809 266.93L387.106 296.247L388.932 302.167C390 305.647 389.824 309.366 388.43 312.739L388.849 322.326C388.865 322.719 388.799 323.111 388.652 323.479C388.506 323.846 388.284 324.182 387.999 324.467C387.713 324.751 387.371 324.977 386.992 325.132C386.613 325.288 386.205 325.369 385.792 325.37Z" fill="#424242"/>
<path d="M347.613 349.548C348.359 349.128 348.999 348.558 349.488 347.877C349.977 347.196 350.304 346.42 350.445 345.606C350.586 344.791 350.538 343.957 350.304 343.163C350.071 342.368 349.657 341.631 349.092 341.006L359.674 323.659L348.752 324.246L340.378 340.628C339.337 341.602 338.708 342.906 338.609 344.292C338.509 345.679 338.947 347.052 339.839 348.152C340.731 349.251 342.015 350 343.448 350.258C344.881 350.515 346.363 350.263 347.613 349.548Z" fill="#FFB7B7"/>
<path d="M351.883 336.795L342.105 329.536L359.873 296.715L353.215 254.919C352.886 252.853 353.039 250.743 353.661 248.739C354.284 246.736 355.361 244.887 356.818 243.325C358.274 241.763 360.073 240.526 362.087 239.701C364.102 238.877 366.282 238.485 368.473 238.554C372.431 238.682 376.173 240.302 378.879 243.057C381.585 245.812 383.034 249.478 382.908 253.251L381.263 300.841L351.883 336.795Z" fill="#424242"/>
<path d="M354.535 220.858V205.432C354.531 199.949 356.812 194.69 360.877 190.811C364.941 186.932 370.456 184.751 376.207 184.747C381.959 184.744 387.477 186.918 391.547 190.792C395.616 194.666 397.905 199.923 397.908 205.405V205.432C401.731 213.024 399.339 216.633 397.908 220.858C397.907 221.594 397.6 222.299 397.054 222.82C396.508 223.34 395.768 223.633 394.996 223.634H357.448C356.676 223.633 355.935 223.34 355.389 222.82C354.843 222.3 354.536 221.594 354.535 220.858Z" fill="#1D1D1B"/>
<path d="M369.111 222.631C378.076 222.631 385.344 215.704 385.344 207.158C385.344 198.612 378.076 191.685 369.111 191.685C360.145 191.685 352.877 198.612 352.877 207.158C352.877 215.704 360.145 222.631 369.111 222.631Z" fill="#FFB7B7"/>
<path d="M386.1 211.214C385.953 211.192 385.806 211.163 385.658 211.141C383.126 210.712 380.594 210.292 378.07 209.856L377.837 204.402L374.779 209.288C367.802 211.495 361.274 210.247 355.133 207.494C353.107 206.578 351.142 205.545 349.248 204.402C349.764 201.385 350.98 198.516 352.809 196.006C354.638 193.495 357.033 191.406 359.818 189.891C360.05 189.765 360.275 189.655 360.507 189.544L360.51 189.543L360.513 189.542L360.514 189.539L360.515 189.536C360.91 189.359 361.312 189.189 361.715 189.034C364.868 187.86 368.305 187.563 371.628 188.177C374.95 188.791 378.022 190.291 380.486 192.503C385.442 197.013 387.672 204.461 386.1 211.214Z" fill="#1D1D1B"/>
</g>
<defs>
<clipPath id="clip0_43_747">
<rect width="470" height="419" fill="white"/>
</clipPath>
</defs>
</svg>
