<svg width="31" height="34" viewBox="0 0 31 34" fill="none" xmlns="http://www.w3.org/2000/svg">
<path d="M24.4965 7.61567C23.3359 6.36013 21.9536 5.36465 20.43 4.68729C18.9065 4.00993 17.2722 3.66424 15.6226 3.6704C8.71088 3.6704 3.07768 9.70354 3.07768 17.106C3.07768 19.4786 3.65999 21.7834 4.74865 23.817L2.97641 30.7857L9.62232 28.9147C11.4579 29.9858 13.5213 30.5552 15.6226 30.5552C22.5344 30.5552 28.1676 24.522 28.1676 17.1196C28.1676 13.5268 26.8637 10.1509 24.4965 7.61567ZM15.6226 28.2775C13.7491 28.2775 11.9136 27.7352 10.3059 26.7184L9.92614 26.4743L5.97657 27.5861L7.02725 23.4645L6.77408 23.0443C5.73319 21.2641 5.1805 19.2064 5.17906 17.106C5.17906 10.9508 9.86284 5.93452 15.61 5.93452C18.3949 5.93452 21.0153 7.10048 22.9774 9.21547C23.949 10.2512 24.7189 11.4832 25.2426 12.84C25.7663 14.1968 26.0333 15.6514 26.0282 17.1196C26.0536 23.2747 21.3698 28.2775 15.6226 28.2775ZM21.3445 19.926C21.028 19.7633 19.4836 18.9499 19.2051 18.8278C18.9139 18.7194 18.7114 18.6651 18.4962 18.9905C18.281 19.3295 17.686 20.0887 17.5088 20.3056C17.3316 20.5361 17.1417 20.5632 16.8252 20.387C16.5088 20.2243 15.496 19.8582 14.3061 18.7194C13.3694 17.8246 12.7491 16.7264 12.5592 16.3875C12.382 16.0485 12.5339 15.8723 12.6984 15.696C12.8377 15.5469 13.0149 15.3028 13.1668 15.113C13.3187 14.9232 13.382 14.7741 13.4833 14.5572C13.5846 14.3267 13.5339 14.1369 13.458 13.9742C13.382 13.8115 12.7491 12.1575 12.4959 11.4796C12.2427 10.8288 11.9769 10.9102 11.787 10.8966H11.1794C10.9642 10.8966 10.635 10.978 10.3439 11.3169C10.0654 11.6558 9.25522 12.4693 9.25522 14.1233C9.25522 15.7774 10.3819 17.3772 10.5338 17.5941C10.6857 17.8246 12.7491 21.214 15.8885 22.6646C16.6353 23.0171 17.2177 23.2205 17.6734 23.3696C18.4203 23.6272 19.1038 23.5866 19.6482 23.5052C20.2558 23.4103 21.509 22.6918 21.7622 21.9054C22.028 21.1191 22.028 20.4547 21.9394 20.3056C21.8508 20.1565 21.6609 20.0887 21.3445 19.926Z" fill="#F0C969"/>
</svg>
