<svg width="133" height="122" viewBox="0 0 133 122" fill="none" xmlns="http://www.w3.org/2000/svg">
<path d="M54.9961 91.8679C78.2053 91.8679 97.0201 73.2848 97.0201 50.3613C97.0201 27.4378 78.2053 8.85461 54.9961 8.85461C31.787 8.85461 12.9722 27.4378 12.9722 50.3613C12.9722 73.2848 31.787 91.8679 54.9961 91.8679Z" fill="#424242"/>
<path d="M91.1563 50.3613C91.1605 55.9341 89.8425 61.4304 87.3079 66.4094C84.7733 71.3883 81.0927 75.7113 76.5613 79.0317C76.2583 79.2557 75.9495 79.4738 75.6387 79.6862C69.5791 83.8465 62.3759 86.0763 54.9961 86.0763C47.6164 86.0763 40.4132 83.8465 34.3536 79.6862C34.0428 79.4738 33.734 79.2557 33.431 79.0317C28.9027 75.7084 25.2244 71.3848 22.6901 66.4065C20.1559 61.4282 18.836 55.9334 18.836 50.3613C18.836 44.7891 20.1559 39.2943 22.6901 34.316C25.2244 29.3377 28.9027 25.0141 33.431 21.6908C33.734 21.4668 34.0428 21.2487 34.3536 21.0363C40.4132 16.876 47.6164 14.6462 54.9961 14.6462C62.3759 14.6462 69.5791 16.876 75.6387 21.0363C75.9495 21.2487 76.2583 21.4668 76.5613 21.6908C81.0927 25.0112 84.7733 29.3342 87.3079 34.3132C89.8425 39.2921 91.1605 44.7884 91.1563 50.3613Z" fill="white"/>
<path d="M54.9961 82.9874C73.2397 82.9874 88.0289 68.3802 88.0289 50.3613C88.0289 32.3423 73.2397 17.7351 54.9961 17.7351C36.7526 17.7351 21.9633 32.3423 21.9633 50.3613C21.9633 68.3802 36.7526 82.9874 54.9961 82.9874Z" fill="#F0C969"/>
<path opacity="0.2" d="M55.0823 17.8263C54.5815 17.8263 54.0839 17.8392 53.5886 17.861C61.9374 18.5856 69.6952 22.4177 75.2903 28.5808C80.8853 34.7439 83.8993 42.7772 83.7214 51.0532C83.5436 59.3292 80.1872 67.229 74.3325 73.1521C68.4777 79.0752 60.5622 82.5786 52.1898 82.9527C53.1432 83.0344 54.1075 83.0786 55.0823 83.0786C63.8432 83.0786 72.2452 79.6412 78.44 73.5226C84.6349 67.404 88.1151 59.1055 88.1151 50.4525C88.1151 41.7995 84.6349 33.5009 78.44 27.3823C72.2452 21.2637 63.8432 17.8263 55.0823 17.8263Z" fill="black"/>
<path d="M55.0939 15.4185C54.8089 15.419 54.5357 15.531 54.3342 15.73C54.1327 15.929 54.0193 16.1988 54.0188 16.4803V21.1136C54.0188 21.3952 54.1321 21.6652 54.3337 21.8644C54.5353 22.0635 54.8087 22.1754 55.0939 22.1754C55.379 22.1754 55.6524 22.0635 55.854 21.8644C56.0556 21.6652 56.1689 21.3952 56.1689 21.1136V16.4803C56.1684 16.1988 56.055 15.929 55.8535 15.73C55.652 15.531 55.3788 15.419 55.0939 15.4185Z" fill="white"/>
<path d="M76.5613 21.6908C76.2583 21.4668 75.9495 21.2487 75.6387 21.0363C75.4522 21.0243 75.2658 21.0605 75.0978 21.1415C74.9299 21.2224 74.7862 21.3452 74.6809 21.4977L72.0403 25.326C71.8798 25.5587 71.8196 25.8448 71.8727 26.1214C71.9259 26.398 72.0881 26.6424 72.3237 26.8009C72.5593 26.9594 72.849 27.0189 73.129 26.9664C73.4091 26.9139 73.6566 26.7537 73.817 26.521L76.4577 22.6927C76.5581 22.5475 76.6203 22.3797 76.6384 22.2047C76.6564 22.0297 76.6299 21.8531 76.5613 21.6908Z" fill="white"/>
<path d="M88.5586 39.1467C88.5055 39.0177 88.4272 38.9002 88.3281 38.801C88.229 38.7019 88.1111 38.6229 87.9812 38.5688C87.8512 38.5147 87.7117 38.4863 87.5707 38.4855C87.4296 38.4846 87.2898 38.5112 87.1591 38.5637L82.8121 40.307C82.5482 40.4131 82.3378 40.6184 82.2271 40.8777C82.1164 41.137 82.1145 41.4291 82.2217 41.6899C82.329 41.9506 82.5366 42.1586 82.7991 42.2681C83.0615 42.3777 83.3572 42.3799 83.6213 42.2742L87.9683 40.5309C88.2321 40.4242 88.4423 40.2187 88.5529 39.9592C88.6635 39.6998 88.6656 39.4077 88.5586 39.1467Z" fill="white"/>
<path d="M37.952 25.326L35.3113 21.4977C35.2061 21.3452 35.0624 21.2224 34.8944 21.1415C34.7265 21.0606 34.5401 21.0243 34.3536 21.0363C34.0428 21.2487 33.734 21.4668 33.431 21.6908C33.3623 21.8531 33.3358 22.0298 33.3539 22.2048C33.372 22.3798 33.4341 22.5475 33.5346 22.6927L36.1753 26.521C36.3357 26.7537 36.5832 26.9139 36.8632 26.9664C37.1433 27.0189 37.433 26.9594 37.6686 26.8009C37.9042 26.6425 38.0664 26.398 38.1196 26.1214C38.1727 25.8448 38.1124 25.5587 37.952 25.326Z" fill="white"/>
<path d="M27.1802 40.307L22.8332 38.5637C22.5691 38.4578 22.2732 38.4598 22.0106 38.5694C21.748 38.6789 21.5402 38.8869 21.4329 39.1478C21.3256 39.4086 21.3276 39.7009 21.4384 39.9603C21.5493 40.2196 21.7599 40.4249 22.024 40.5309L26.371 42.2742C26.6351 42.3799 26.9308 42.3777 27.1932 42.2681C27.4557 42.1586 27.6633 41.9506 27.7706 41.6899C27.8778 41.4291 27.8759 41.137 27.7652 40.8777C27.6545 40.6184 27.4441 40.4132 27.1802 40.307Z" fill="white"/>
<path d="M55.0939 78.5472C54.8089 78.5477 54.5357 78.6597 54.3342 78.8587C54.1327 79.0577 54.0193 79.3275 54.0188 79.609V84.2423C54.0188 84.5239 54.1321 84.794 54.3337 84.9931C54.5353 85.1922 54.8087 85.3041 55.0939 85.3041C55.379 85.3041 55.6524 85.1922 55.854 84.9931C56.0556 84.794 56.1689 84.5239 56.1689 84.2423V79.609C56.1684 79.3275 56.055 79.0577 55.8535 78.8587C55.652 78.6597 55.3788 78.5477 55.0939 78.5472Z" fill="white"/>
<path d="M76.4577 78.0298L73.817 74.2015C73.7376 74.0863 73.6359 73.9876 73.5179 73.9112C73.3998 73.8348 73.2677 73.7821 73.129 73.7561C72.9904 73.7301 72.8479 73.7313 72.7097 73.7597C72.5715 73.7881 72.4404 73.8431 72.3237 73.9216C72.207 74 72.1072 74.1004 72.0298 74.217C71.9524 74.3336 71.899 74.4641 71.8727 74.6011C71.8464 74.738 71.8476 74.8788 71.8764 75.0153C71.9051 75.1517 71.9608 75.2813 72.0403 75.3965L74.6809 79.2248C74.7862 79.3773 74.9299 79.5001 75.0978 79.581C75.2658 79.6619 75.4522 79.6982 75.6387 79.6862C75.9495 79.4738 76.2583 79.2557 76.5613 79.0317C76.6299 78.8694 76.6565 78.6927 76.6384 78.5178C76.6203 78.3428 76.5582 78.175 76.4577 78.0298Z" fill="white"/>
<path d="M87.9683 60.1916L83.6213 58.4483C83.3572 58.3424 83.0613 58.3444 82.7987 58.4539C82.5361 58.5635 82.3283 58.7715 82.221 59.0324C82.1137 59.2932 82.1157 59.5854 82.2266 59.8448C82.3374 60.1042 82.548 60.3095 82.8121 60.4155L87.1591 62.1588C87.4232 62.2645 87.7189 62.2623 87.9814 62.1527C88.2438 62.0432 88.4515 61.8352 88.5587 61.5744C88.6659 61.3137 88.664 61.0216 88.5533 60.7623C88.4426 60.503 88.2322 60.2977 87.9683 60.1916Z" fill="white"/>
<path d="M37.6686 73.9216C37.4329 73.7632 37.1433 73.7037 36.8632 73.7562C36.5832 73.8087 36.3357 73.9689 36.1753 74.2015L33.5346 78.0298C33.4341 78.175 33.372 78.3428 33.3539 78.5177C33.3358 78.6927 33.3623 78.8694 33.431 79.0317C33.734 79.2557 34.0428 79.4738 34.3536 79.6862C34.5401 79.6982 34.7265 79.6619 34.8944 79.581C35.0624 79.5001 35.2061 79.3773 35.3113 79.2248L37.952 75.3965C38.0314 75.2813 38.0871 75.1517 38.1159 75.0152C38.1447 74.8788 38.1459 74.738 38.1196 74.6011C38.0933 74.4641 38.0399 74.3336 37.9625 74.217C37.8851 74.1004 37.7852 74 37.6686 73.9216Z" fill="white"/>
<path d="M27.7705 59.0313C27.7174 58.9022 27.6391 58.7848 27.54 58.6856C27.4409 58.5864 27.323 58.5075 27.1931 58.4534C27.0631 58.3992 26.9236 58.3709 26.7825 58.37C26.6415 58.3692 26.5016 58.3958 26.371 58.4483L22.024 60.1916C21.7601 60.2977 21.5497 60.503 21.439 60.7623C21.3283 61.0216 21.3264 61.3137 21.4336 61.5744C21.5409 61.8351 21.7485 62.0431 22.0109 62.1527C22.2734 62.2623 22.5691 62.2645 22.8332 62.1588L27.1802 60.4155C27.4439 60.3088 27.6541 60.1032 27.7648 59.8438C27.8754 59.5844 27.8775 59.2922 27.7705 59.0313Z" fill="white"/>
<path d="M90.1214 114.547L90.2642 114.904H90.1214V114.547Z" fill="#2F2E41"/>
<path d="M69.7969 42.5055C69.724 42.3232 69.6005 42.1674 69.442 42.0578C69.2835 41.9482 69.0971 41.8897 68.9065 41.8896H65.2397C64.727 40.9872 63.9974 40.2374 63.1218 39.7131C62.2461 39.1888 61.2543 38.9078 60.2426 38.8975C59.4889 38.8873 58.7408 39.0331 58.0424 39.3264C57.344 39.6198 56.7093 40.0546 56.1758 40.6055C55.6266 41.1631 55.1908 41.8286 54.8938 42.563C54.5969 43.2973 54.4448 44.0857 54.4466 44.8817V45.641C49.5953 44.317 45.6273 40.234 45.5851 40.1904C45.4558 40.0554 45.2919 39.9614 45.1127 39.9196C44.9335 39.8777 44.7464 39.8897 44.5736 39.9542C44.4008 40.0187 44.2494 40.1329 44.1372 40.2834C44.025 40.4339 43.9567 40.6144 43.9403 40.8037C43.421 46.7618 45.0935 50.7488 46.5913 53.044C47.3216 54.1786 48.2101 55.1953 49.2278 56.061C47.3926 58.2465 44.503 59.3948 44.4717 59.4072C44.3357 59.4599 44.2129 59.5438 44.1126 59.6525C44.0123 59.7612 43.937 59.8919 43.8924 60.0349C43.8478 60.1779 43.835 60.3295 43.855 60.4784C43.875 60.6273 43.9272 60.7695 44.0078 60.8946C44.0982 61.0342 44.4597 61.5241 45.3429 61.9817C46.4346 62.5477 47.877 62.8344 49.6267 62.8344C58.1423 62.8344 65.2578 56.0498 65.9844 47.3203L69.5885 43.5926C69.7233 43.4531 69.815 43.2753 69.8521 43.0818C69.8892 42.8883 69.87 42.6877 69.7969 42.5055ZM64.3745 46.1721C64.2092 46.3435 64.1099 46.5713 64.0949 46.8129C63.6045 54.6784 57.2518 60.8397 49.6267 60.8397C48.3542 60.8397 47.4577 60.6652 46.8287 60.4557C48.2156 59.6765 50.1496 58.3363 51.3932 56.4064C51.4662 56.2929 51.5159 56.1651 51.5393 56.031C51.5627 55.8969 51.5593 55.7592 51.5292 55.6265C51.4992 55.4937 51.4432 55.3688 51.3646 55.2593C51.2861 55.1499 51.1867 55.0583 51.0726 54.9901C51.016 54.9564 45.7815 51.7063 45.7707 43.0216C47.6987 44.6424 51.2233 47.157 55.2503 47.8577C55.3884 47.8817 55.5298 47.8744 55.6648 47.8362C55.7998 47.798 55.9252 47.7299 56.0322 47.6365C56.1391 47.5432 56.2252 47.4268 56.2843 47.2956C56.3435 47.1643 56.3743 47.0213 56.3746 46.8765V44.8817C56.3735 44.3497 56.4753 43.8228 56.674 43.3321C56.8726 42.8414 57.1641 42.3967 57.5314 42.0243C57.8834 41.6594 58.3026 41.3712 58.7641 41.1767C59.2257 40.9823 59.7202 40.8856 60.2185 40.8923C61.744 40.9122 63.1695 41.8747 63.766 43.2872C63.8412 43.4648 63.9648 43.6158 64.1216 43.7219C64.2785 43.828 64.4618 43.8844 64.6492 43.8844H66.5772L64.3745 46.1721Z" fill="black"/>
</svg>
