<svg width="259" height="308" viewBox="0 0 259 308" fill="none" xmlns="http://www.w3.org/2000/svg">
<path d="M129.19 240.874C200.541 240.874 258.381 186.953 258.381 120.437C258.381 53.9216 200.541 0 129.19 0C57.8402 0 0 53.9216 0 120.437C0 186.953 57.8402 240.874 129.19 240.874Z" fill="#424242"/>
<path d="M240.354 120.437C240.367 136.608 236.315 152.556 228.523 167.003C220.732 181.45 209.416 193.994 195.486 203.629C194.554 204.279 193.605 204.912 192.649 205.527C174.021 217.6 151.878 224.07 129.19 224.07C106.503 224.07 84.3597 217.6 65.7304 205.527C64.775 204.912 63.8256 204.279 62.8944 203.629C48.9738 193.986 37.6657 181.44 29.875 166.995C22.0842 152.55 18.0266 136.606 18.0266 120.437C18.0266 104.269 22.0842 88.3248 29.875 73.8801C37.6657 59.4345 48.9738 46.8892 62.8944 37.2461C63.8256 36.5963 64.775 35.9633 65.7304 35.3471C84.3597 23.2755 106.503 16.8054 129.19 16.8054C151.878 16.8054 174.021 23.2755 192.649 35.3471C193.605 35.9633 194.554 36.5963 195.486 37.2461C209.416 46.8807 220.732 59.4243 228.523 73.8716C236.315 88.3189 240.367 104.267 240.354 120.437Z" fill="white"/>
<path d="M129.19 215.107C185.275 215.107 230.74 172.722 230.74 120.437C230.74 68.1527 185.275 25.7681 129.19 25.7681C73.1057 25.7681 27.6407 68.1527 27.6407 120.437C27.6407 172.722 73.1057 215.107 129.19 215.107Z" fill="#F0C969"/>
<path opacity="0.2" d="M129.455 26.0327C127.916 26.0327 126.386 26.0703 124.863 26.1335C150.529 28.236 174.379 39.3553 191.578 57.2384C208.779 75.1212 218.044 98.4311 217.497 122.446C216.951 146.459 206.633 169.381 188.634 186.568C170.636 203.755 146.302 213.92 120.563 215.006C123.494 215.243 126.458 215.371 129.455 215.371C156.388 215.371 182.217 205.397 201.262 187.643C220.306 169.889 231.005 145.81 231.005 120.702C231.005 95.594 220.306 71.5144 201.262 53.7608C182.217 36.0068 156.388 26.0327 129.455 26.0327Z" fill="black"/>
<path d="M129.491 19.046C128.615 19.0475 127.775 19.3726 127.156 19.9501C126.536 20.5275 126.187 21.3103 126.185 22.127V35.5712C126.185 36.3883 126.534 37.1719 127.154 37.7497C127.773 38.3276 128.615 38.6521 129.491 38.6521C130.367 38.6521 131.208 38.3276 131.828 37.7497C132.447 37.1719 132.796 36.3883 132.796 35.5712V22.127C132.794 21.3103 132.446 20.5275 131.826 19.9501C131.206 19.3726 130.366 19.0475 129.491 19.046Z" fill="white"/>
<path d="M195.486 37.246C194.554 36.5962 193.605 35.9632 192.649 35.347C192.077 35.3122 191.503 35.4174 190.987 35.6522C190.471 35.887 190.029 36.2433 189.705 36.6859L181.587 47.7941C181.094 48.4694 180.909 49.2996 181.072 50.1021C181.236 50.9048 181.734 51.614 182.459 52.0738C183.183 52.5336 184.073 52.7064 184.935 52.554C185.796 52.4017 186.556 51.9368 187.049 51.2616L195.167 40.1533C195.477 39.7319 195.668 39.2452 195.723 38.7374C195.778 38.2296 195.697 37.717 195.486 37.246Z" fill="white"/>
<path d="M232.368 87.8973C232.205 87.5222 231.964 87.1817 231.66 86.8936C231.355 86.6063 230.992 86.3774 230.593 86.2202C230.193 86.0631 229.765 85.9811 229.331 85.9786C228.897 85.976 228.467 86.0529 228.066 86.205L214.702 91.2632C213.891 91.5716 213.244 92.1672 212.904 92.92C212.563 93.6719 212.557 94.5194 212.887 95.2764C213.217 96.0325 213.856 96.6366 214.662 96.9543C215.469 97.2719 216.378 97.2787 217.19 96.972L230.553 91.9138C231.365 91.6037 232.011 91.0072 232.351 90.2545C232.691 89.5017 232.697 88.6543 232.368 87.8973Z" fill="white"/>
<path d="M76.7934 47.7941L68.6752 36.6859C68.3521 36.2433 67.9098 35.887 67.3932 35.6522C66.8775 35.4174 66.3039 35.3122 65.7312 35.347C64.7758 35.9632 63.8256 36.5962 62.8944 37.246C62.6836 37.717 62.6024 38.2296 62.6577 38.7374C62.713 39.2452 62.9039 39.7319 63.2132 40.1533L71.3314 51.2616C71.8247 51.9368 72.5849 52.4017 73.4461 52.554C74.3073 52.7064 75.1971 52.5336 75.9218 52.0738C76.6457 51.614 77.145 50.9048 77.3083 50.1021C77.4715 49.2996 77.2867 48.4694 76.7934 47.7941Z" fill="white"/>
<path d="M43.6783 91.2632L30.3146 86.205C29.5027 85.8975 28.5931 85.9034 27.7858 86.2219C26.9785 86.5396 26.3397 87.1428 26.0099 87.8998C25.68 88.6568 25.6862 89.5051 26.0269 90.257C26.3677 91.0098 27.0152 91.6054 27.827 91.9129L41.1907 96.972C42.0024 97.2787 42.9116 97.2719 43.7184 96.9543C44.5252 96.6358 45.1635 96.0325 45.4932 95.2764C45.8229 94.5194 45.8169 93.672 45.4767 92.92C45.1363 92.1672 44.4895 91.5716 43.6783 91.2632Z" fill="white"/>
<path d="M129.491 202.222C128.615 202.224 127.775 202.549 127.156 203.126C126.536 203.704 126.187 204.487 126.185 205.304V218.748C126.185 219.565 126.534 220.349 127.154 220.926C127.773 221.504 128.615 221.828 129.491 221.828C130.367 221.828 131.208 221.504 131.828 220.926C132.447 220.349 132.796 219.565 132.796 218.748V205.304C132.794 204.487 132.446 203.704 131.826 203.126C131.206 202.549 130.366 202.224 129.491 202.222Z" fill="white"/>
<path d="M195.167 200.722L187.049 189.614C186.806 189.279 186.493 188.993 186.13 188.771C185.767 188.549 185.36 188.396 184.935 188.321C184.508 188.246 184.07 188.249 183.646 188.331C183.221 188.414 182.817 188.574 182.459 188.801C182.1 189.029 181.793 189.32 181.555 189.658C181.317 189.996 181.154 190.376 181.072 190.773C180.991 191.17 180.995 191.579 181.084 191.974C181.172 192.37 181.344 192.746 181.587 193.081L189.705 204.189C190.029 204.632 190.471 204.988 190.987 205.223C191.503 205.457 192.077 205.563 192.649 205.527C193.605 204.912 194.554 204.279 195.486 203.629C195.697 203.158 195.778 202.645 195.723 202.137C195.668 201.629 195.477 201.143 195.167 200.722Z" fill="white"/>
<path d="M230.553 148.962L217.19 143.903C216.378 143.596 215.468 143.602 214.661 143.92C213.854 144.237 213.215 144.841 212.885 145.598C212.556 146.355 212.562 147.203 212.902 147.956C213.243 148.708 213.89 149.304 214.702 149.612L228.066 154.67C228.878 154.976 229.787 154.97 230.594 154.652C231.401 154.334 232.038 153.73 232.368 152.974C232.698 152.217 232.692 151.37 232.352 150.618C232.012 149.865 231.365 149.269 230.553 148.962Z" fill="white"/>
<path d="M75.9218 188.801C75.1971 188.341 74.3073 188.169 73.4461 188.321C72.5849 188.473 71.8247 188.938 71.3314 189.614L63.2132 200.721C62.9039 201.143 62.713 201.629 62.6577 202.137C62.6024 202.645 62.6836 203.158 62.8944 203.629C63.8256 204.279 64.7758 204.912 65.7312 205.527C66.3039 205.562 66.8775 205.457 67.3932 205.223C67.9098 204.988 68.3521 204.631 68.6752 204.189L76.7934 193.081C77.037 192.746 77.2089 192.37 77.297 191.974C77.3851 191.579 77.3895 191.17 77.3083 190.773C77.2271 190.375 77.0629 189.996 76.8254 189.658C76.5878 189.32 76.2803 189.029 75.9218 188.801Z" fill="white"/>
<path d="M45.493 145.595C45.3298 145.22 45.089 144.879 44.7844 144.591C44.4798 144.304 44.1174 144.075 43.7178 143.918C43.3183 143.761 42.8895 143.679 42.4559 143.676C42.0222 143.674 41.5923 143.751 41.1907 143.903L27.827 148.961C27.0158 149.269 26.369 149.865 26.0287 150.618C25.6884 151.37 25.6824 152.217 26.0122 152.974C26.3418 153.73 26.9802 154.334 27.787 154.652C28.5937 154.97 29.5029 154.976 30.3146 154.67L43.6783 149.612C44.4891 149.301 45.1354 148.705 45.4755 147.952C45.8155 147.199 45.8219 146.352 45.493 145.595Z" fill="white"/>
<path d="M237.172 306.68L237.612 307.716H237.172V306.68Z" fill="#2F2E41"/>
<path d="M128.833 75.1667C122.814 75.1667 116.854 76.3522 111.294 78.6555C105.733 80.9589 100.68 84.3349 96.4243 88.5909C87.8289 97.1864 83 108.844 83 121C83 133.156 87.8289 144.814 96.4243 153.409C100.68 157.665 105.733 161.041 111.294 163.344C116.854 165.648 122.814 166.833 128.833 166.833C140.989 166.833 152.647 162.004 161.242 153.409C169.838 144.814 174.667 133.156 174.667 121C174.667 115.683 173.704 110.412 171.871 105.462L164.538 112.796C165.179 115.5 165.5 118.25 165.5 121C165.5 130.725 161.637 140.051 154.761 146.927C147.884 153.804 138.558 157.667 128.833 157.667C119.109 157.667 109.782 153.804 102.906 146.927C96.0298 140.051 92.1667 130.725 92.1667 121C92.1667 111.275 96.0298 101.949 102.906 95.0727C109.782 88.1964 119.109 84.3333 128.833 84.3333C131.583 84.3333 134.333 84.6542 137.038 85.2958L144.417 77.9167C139.421 76.1292 134.15 75.1667 128.833 75.1667ZM160.917 75.1667L142.583 93.5V100.375L130.896 112.062C130.208 111.833 129.521 111.833 128.833 111.833C126.402 111.833 124.071 112.799 122.352 114.518C120.632 116.237 119.667 118.569 119.667 121C119.667 123.431 120.632 125.763 122.352 127.482C124.071 129.201 126.402 130.167 128.833 130.167C131.264 130.167 133.596 129.201 135.315 127.482C137.034 125.763 138 123.431 138 121C138 120.312 138 119.625 137.771 118.937L149.458 107.25H156.333L174.667 88.9167H160.917V75.1667ZM128.833 93.5C121.54 93.5 114.545 96.3973 109.388 101.555C104.231 106.712 101.333 113.707 101.333 121C101.333 128.293 104.231 135.288 109.388 140.445C114.545 145.603 121.54 148.5 128.833 148.5C136.127 148.5 143.122 145.603 148.279 140.445C153.436 135.288 156.333 128.293 156.333 121H147.167C147.167 125.862 145.235 130.525 141.797 133.964C138.359 137.402 133.696 139.333 128.833 139.333C123.971 139.333 119.308 137.402 115.87 133.964C112.432 130.525 110.5 125.862 110.5 121C110.5 116.138 112.432 111.475 115.87 108.036C119.308 104.598 123.971 102.667 128.833 102.667V93.5Z" fill="#0F0F0F"/>
</svg>
